Coordinates
version=1
nRows=17
nColumns=24
inDegrees=yes

Units are S.I. units (second, meters, Newtons, ...)
Angles are in degrees.

endheader
time	pelvis_tilt	pelvis_list	pelvis_rotation	pelvis_tx	pelvis_ty	pelvis_tz	hip_flexion_r	hip_adduction_r	hip_rotation_r	knee_angle_r	ankle_angle_r	subtalar_angle_r	mtp_angle_r	hip_flexion_l	hip_adduction_l	hip_rotation_l	knee_angle_l	ankle_angle_l	subtalar_angle_l	mtp_angle_l	lumbar_extension	lumbar_bending	lumbar_rotation
      0.47100000	      3.76823239	     -1.31166478	      4.72377506	     -0.72911047	      0.90513544	      0.31904399	     23.36000966	      2.60824198	     -9.27754484	    -19.33007482	      5.81084766	      3.22501895	      0.74335076	    -23.54527600	     -1.00325075	      1.06989934	     -4.09966925	     13.65451581	     -1.08371603	     10.51664359	    -13.99733621	      0.60816793	     -8.64627076
      0.47516667	      3.75210116	     -1.33028642	      4.82297392	     -0.72325191	      0.90390654	      0.31920806	     23.22789610	      2.75561441	     -8.94207227	    -18.91783123	      5.73777017	      2.84676393	      0.72886229	    -23.61612126	     -1.12538351	      1.08158354	     -4.74390891	     13.90261742	     -0.78977716	     10.56013014	    -13.95513279	      0.67529210	     -8.73092585
      0.47933333	      3.73235031	     -1.34625495	      4.90799168	     -0.71737703	      0.90268204	      0.31939510	     23.12336356	      2.89689318	     -8.62659443	    -18.65889800	      5.68619225	      2.49320166	      0.71702291	    -23.65717835	     -1.23694687	      1.09369688	     -5.44900239	     14.12576372	     -0.54629234	     10.63207539	    -13.90587209	      0.73953626	     -8.72178615
      0.48350000	      3.71718394	     -1.37310749	      4.98214644	     -0.71145457	      0.90149835	      0.31961782	     23.01298610	      3.05551251	     -8.31438177	    -18.49360528	      5.58703639	      2.06513713	      0.70419772	    -23.67696808	     -1.36157690	      1.02840812	     -6.21020339	     14.29883170	     -0.25455945	     10.75983566	    -13.83646324	      0.79441557	     -8.69682492
      0.48766667	      3.71354597	     -1.41047963	      5.04260396	     -0.70551834	      0.90035154	      0.31986512	     22.91247286	      3.22678090	     -8.01513591	    -18.46736197	      5.48588464	      1.63377167	      0.69689637	    -23.68141212	     -1.49391557	      0.93998559	     -7.02994538	     14.49087060	      0.08083868	     11.02215052	    -13.79894580	      0.88919929	     -8.64227786
      0.49183333	      3.64860774	     -1.43543846	      5.10535075	     -0.69957501	      0.89917973	      0.32013621	     22.88526345	      3.37842980	     -7.72053060	    -18.53641579	      5.29178356	      1.14875880	      0.69666779	    -23.59031147	     -1.60472893	      0.95906761	     -7.90930138	     14.59563053	      0.23313525	     11.21117529	    -13.67438698	      0.94411895	     -8.58451944
      0.49600000	      3.64806469	     -1.49589906	      5.15771760	     -0.69358697	      0.89812033	      0.32045525	     22.79131803	      3.57963988	     -7.44324409	    -18.68972747	      5.10801153	      0.65931686	      0.72642797	    -23.52651665	     -1.76771174	      0.81464776	     -8.87818042	     14.77053102	      0.64456536	     11.76505272	    -13.62831775	      1.05214066	     -8.47726458
      0.50016667	      3.56360551	     -1.51463913	      5.19392983	     -0.68761634	      0.89698628	      0.32077910	     22.83960819	      3.72159814	     -7.18660513	    -19.02860846	      4.91607970	      0.15455814	      0.73477752	    -23.37668281	     -1.85171716	      0.89962213	     -9.83738160	     14.80347750	      0.63938360	     11.92703055	    -13.48864282	      1.11080041	     -8.39465148
      0.50433333	      3.55385231	     -1.59083092	      5.20329642	     -0.68156970	      0.89598512	      0.32118402	     22.79062633	      3.95132029	     -6.90838850	    -19.38674094	      4.68892682	     -0.44648225	      0.79445666	    -23.23912421	     -2.02090632	      0.64887520	    -10.94135802	     14.85522640	      1.08815415	     12.56792736	    -13.41884147	      1.23446037	     -8.22782893
      0.50850000	      3.44900958	     -1.61136013	      5.22468352	     -0.67556566	      0.89493097	      0.32156374	     22.88377325	      4.09299584	     -6.67960914	    -19.89323350	      4.49957135	     -0.92166918	      0.81075854	    -22.99383189	     -2.09777372	      0.73590989	    -12.04725322	     14.81220407	      1.02325098	     12.76006161	    -13.24372254	      1.28052298	     -8.12174821
      0.51266667	      3.36400167	     -1.64324624	      5.21133170	     -0.66953249	      0.89393463	      0.32201881	     22.97067515	      4.26347998	     -6.42601708	    -20.47769696	      4.32808654	     -1.46451375	      0.83472967	    -22.72937807	     -2.18589551	      0.68096571	    -13.24075162	     14.72835584	      1.11054704	     13.00499976	    -13.07490420	      1.33805675	     -7.95769133
      0.51683333	      3.33217186	     -1.75709600	      5.22977401	     -0.66341234	      0.89309332	      0.32246118	     22.96359262	      4.51442771	     -6.25203083	    -21.01753020	      4.07769423	     -2.00183338	      1.40364738	    -22.45326654	     -2.40363119	      0.44415368	    -14.55102154	     14.55188092	      1.41290553	     18.04349519	    -12.95723468	      1.51572011	     -7.87035339
      0.52100000	      3.24510586	     -1.76105208	      5.14509169	     -0.65737763	      0.89216252	      0.32301475	     23.11512717	      4.66679228	     -5.97411087	    -21.82282795	      4.09439274	     -2.42478006	      1.40740931	    -22.14274849	     -2.42598199	      0.39269252	    -15.84215357	     14.34268744	      1.33869366	     18.10616703	    -12.81532493	      1.52570911	     -7.60712162
      0.52516667	      3.15505507	     -1.80804589	      5.09615852	     -0.65129280	      0.89132542	      0.32352986	     23.24670349	      4.84499560	     -5.78180635	    -22.60422474	      4.06947232	     -2.82562682	      1.41251803	    -21.76746782	     -2.51393824	      0.31513662	    -17.23747349	     14.07865176	      1.34556430	     18.21138258	    -12.63643842	      1.60184650	     -7.37205029
      0.52933333	      3.07360180	     -1.85214623	      5.02547047	     -0.64521374	      0.89055825	      0.32408003	     23.37845344	      5.02526031	     -5.57659582	    -23.43443939	      4.10909694	     -3.19436465	      1.42119604	    -21.35884282	     -2.59430033	      0.20419756	    -18.70827209	     13.75937608	      1.35699213	     18.36596018	    -12.47833443	      1.67980653	     -7.13560241
      0.53350000	      3.00095672	     -1.90727057	      4.94383131	     -0.63911382	      0.88986719	      0.32464614	     23.50150155	      5.21709191	     -5.38318498	    -24.29093142	      4.22794151	     -3.51746489	      1.43099707	    -20.92371127	     -2.68326438	      0.07365896	    -20.24106501	     13.35533000	      1.33103237	     18.54522671	    -12.32182700	      1.76990503	     -6.90297365
      0.53766667	      2.93395126	     -1.94416223	      4.85364516	     -0.63305599	      0.88925407	      0.32522311	     23.62089298	      5.38262912	     -5.21336241	    -25.16914635	      4.35888576	     -3.76042369	      1.44011367	    -20.43453918	     -2.75528331	     -0.08534927	    -21.87212323	     12.92868390	      1.31376159	     18.84116094	    -12.18030241	      1.80914016	     -6.62434365
